<?xml version="1.0" encoding="UTF-8"?>
<svg version="1.1" xmlns="http://www.w3.org/2000/svg" width="910" height="274">
<path d="M0 0 C4.75 0.875 4.75 0.875 7 2 C8.13100869 5.92251129 8.13235918 9.76115332 8.14526367 13.82226562 C8.14862228 14.48796066 8.1519809 15.1536557 8.15544128 15.83952332 C8.16489935 18.02845146 8.16689156 20.21730273 8.16796875 22.40625 C8.17118409 23.93412304 8.17454837 25.46199577 8.17805481 26.98986816 C8.18403261 30.18742588 8.18589602 33.38495662 8.18530273 36.58251953 C8.185201 40.67473619 8.19887071 44.76677977 8.21607494 48.85895538 C8.22720394 52.01256095 8.22922169 55.16612473 8.22869301 58.31974792 C8.22987109 59.82839049 8.23428323 61.33703419 8.24202538 62.84565735 C8.25184683 64.95647266 8.2489393 67.06691274 8.24291992 69.17773438 C8.24434494 70.37732788 8.24576996 71.57692139 8.24723816 72.81286621 C8.00047819 75.99383565 7.50003651 78.19255159 6 81 C2.71071522 82.1807689 1.34715311 82.1157177 -2 81 C-2.33 79.02 -2.66 77.04 -3 75 C-3.66 75 -4.32 75 -5 75 C-5.24878906 75.62390625 -5.49757812 76.2478125 -5.75390625 76.890625 C-7.65202181 80.10373599 -9.90391569 80.44923029 -13.3671875 81.45703125 C-20.47720271 82.92334003 -26.90399175 82.90531831 -33.28125 79.20703125 C-37.30550854 76.38090423 -39.9446928 73.42681551 -42 69 C-42.66 68.67 -43.32 68.34 -44 68 C-45.66915896 62.16119862 -44.96786794 56.06047041 -44.75 50.0625 C-44.72292969 48.89525391 -44.69585937 47.72800781 -44.66796875 46.52539062 C-44.27803634 35.48778785 -44.27803634 35.48778785 -41 31 C-40.01 30.67 -39.02 30.34 -38 30 C-38 29.34 -38 28.68 -38 28 C-34.36982101 23.90278044 -30.05737648 21.94485136 -24.67578125 21.3984375 C-23.09726434 21.32548221 -21.5174842 21.27623052 -19.9375 21.25 C-19.18227051 21.22276855 -18.42704102 21.19553711 -17.64892578 21.16748047 C-11.28634363 21.26842994 -7.65833299 23.82722357 -3 28 C-3.03552979 27.31897217 -3.07105957 26.63794434 -3.10766602 25.9362793 C-3.26517792 22.85362135 -3.41393888 19.77060171 -3.5625 16.6875 C-3.64661133 15.0797168 -3.64661133 15.0797168 -3.73242188 13.43945312 C-3.80493164 11.89741211 -3.80493164 11.89741211 -3.87890625 10.32421875 C-3.9260376 9.37635498 -3.97316895 8.42849121 -4.02172852 7.4519043 C-4 5 -4 5 -3 2 C-2.01 2 -1.02 2 0 2 C0 1.34 0 0.68 0 0 Z M-32 39 C-33.39631887 43.23888458 -33.18395363 47.52227087 -33.1875 51.9375 C-33.19974609 52.73607422 -33.21199219 53.53464844 -33.22460938 54.35742188 C-33.23528966 58.65445588 -33.13631321 62.14739448 -31 66 C-27.21131108 69.33765452 -24.12994836 70.68661283 -19.0078125 70.375 C-12.96563116 69.24649921 -8.15242586 65.11420902 -4.34765625 60.46875 C-1.60702699 55.44823495 -1.58841937 50.45988732 -3 45 C-6.2767143 40.20678982 -10.53804352 36.15461794 -16 34 C-22.68883478 33.07863993 -27.15551122 34.15551122 -32 39 Z " fill="#010101" transform="translate(83,51)"/>
<path d="M0 0 C0.92361328 -0.00257812 1.84722656 -0.00515625 2.79882812 -0.0078125 C7.78772266 0.06402183 11.27056518 0.29223559 15.3125 3.5 C15.94414062 3.98339844 16.57578125 4.46679688 17.2265625 4.96484375 C17.79117188 5.45082031 18.35578125 5.93679687 18.9375 6.4375 C19.50726563 6.92089844 20.07703125 7.40429688 20.6640625 7.90234375 C23.30498314 10.46190902 25.15571553 12.31900273 25.65307617 16.06542969 C25.6295105 17.47937012 25.6295105 17.47937012 25.60546875 18.921875 C25.5909668 20.45908203 25.5909668 20.45908203 25.57617188 22.02734375 C25.55103516 23.09082031 25.52589844 24.15429688 25.5 25.25 C25.47969727 26.86841797 25.47969727 26.86841797 25.45898438 28.51953125 C25.42366584 31.1801942 25.37434199 33.83984296 25.3125 36.5 C21.46711081 39.06063934 17.48778152 38.75509461 13.046875 38.6953125 C12.25347717 38.6924826 11.46007935 38.68965271 10.64263916 38.68673706 C8.11577083 38.67556779 5.58926068 38.65046944 3.0625 38.625 C1.3463593 38.61496598 -0.36978698 38.60584087 -2.0859375 38.59765625 C-6.28659574 38.57563914 -10.4869872 38.54113187 -14.6875 38.5 C-13.9759375 39.8921875 -13.9759375 39.8921875 -13.25 41.3125 C-11.6875 44.5 -11.6875 44.5 -10.6875 47.5 C-9.70354248 47.48428955 -8.71958496 47.4685791 -7.70581055 47.45239258 C-4.05501492 47.39809022 -0.40425499 47.36364915 3.24682617 47.33520508 C4.82696536 47.32011906 6.40706269 47.2996475 7.98706055 47.27368164 C10.25840585 47.23728874 12.52919759 47.22027238 14.80078125 47.20703125 C15.86030754 47.18380547 15.86030754 47.18380547 16.9412384 47.16011047 C19.81832306 47.15912339 21.8213967 47.1707214 24.25073242 48.79956055 C26.09781495 51.7576957 25.79284563 54.13758059 25.3125 57.5 C21.3559731 60.77727059 17.59930019 60.917089 12.66796875 60.78515625 C11.93935135 60.7729454 11.21073395 60.76073456 10.46003723 60.74815369 C8.92263082 60.71650577 7.3853763 60.67650671 5.84838867 60.62866211 C3.51740778 60.56299044 1.18920692 60.54482075 -1.14257812 60.52929688 C-14.58663731 60.274239 -14.58663731 60.274239 -20.15112305 55.36108398 C-24.47856585 50.11905372 -26.31163774 46.32604142 -26.32421875 39.50390625 C-26.33516068 38.75213608 -26.3461026 38.00036591 -26.3573761 37.22581482 C-26.37317068 35.64336975 -26.37845796 34.06078846 -26.3737793 32.47827148 C-26.37499567 30.07107513 -26.43483408 27.66993938 -26.49804688 25.26367188 C-26.65072535 12.42379661 -26.65072535 12.42379661 -22.64453125 8.21484375 C-20.71142578 6.77124023 -20.71142578 6.77124023 -18.6875 5.5 C-18.07116699 5.00765869 -17.45483398 4.51531738 -16.81982422 4.00805664 C-11.4389233 0.00657281 -6.54267702 -0.2034472 0 0 Z M-13.6875 16.5 C-14.89022819 18.90545638 -14.78821472 20.44996953 -14.75 23.125 C-14.74097656 23.94226563 -14.73195313 24.75953125 -14.72265625 25.6015625 C-14.71105469 26.22804688 -14.69945312 26.85453125 -14.6875 27.5 C-10.71819011 27.52465881 -6.74890966 27.54284023 -2.77954102 27.55493164 C-1.42829614 27.55997057 -0.07705674 27.56680177 1.27416992 27.57543945 C3.21270434 27.58752419 5.151278 27.59269828 7.08984375 27.59765625 C8.25765381 27.60289307 9.42546387 27.60812988 10.62866211 27.61352539 C13.23141551 27.80661495 13.23141551 27.80661495 14.3125 26.5 C14.83036975 22.68071058 15.17217485 20.04741473 13.27734375 16.63671875 C10.34989729 13.49963418 7.98085865 12.59444198 3.71875 11.9921875 C-3.43021204 11.7810961 -7.9500223 11.89276227 -13.6875 16.5 Z " fill="#010101" transform="translate(424.6875,72.5)"/>
<path d="M0 0 C8.06775408 6.13550816 8.06775408 6.13550816 10 10 C10.39176441 13.63400826 10.51434053 17.28729844 10.6875 20.9375 C10.74744141 21.95263672 10.80738281 22.96777344 10.86914062 24.01367188 C10.91619141 24.98755859 10.96324219 25.96144531 11.01171875 26.96484375 C11.08072388 28.30470337 11.08072388 28.30470337 11.15112305 29.67163086 C11 32 11 32 9 35 C1.2012371 36.70597938 -7.04815845 36.1103157 -15 36.0625 C-16.45702971 36.05747576 -17.9140611 36.05291449 -19.37109375 36.04882812 C-22.9140977 36.03789388 -26.45703797 36.02068 -30 36 C-27.57606439 40.49959931 -27.57606439 40.49959931 -24 44 C-20.86980832 44.47545483 -20.86980832 44.47545483 -17.28515625 44.44140625 C-16.30693153 44.46121803 -16.30693153 44.46121803 -15.3089447 44.48143005 C-13.22675318 44.52228541 -11.14500125 44.54397712 -9.0625 44.5625 C-6.98370497 44.58633332 -4.90532134 44.61454265 -2.82676697 44.65428162 C-0.93814721 44.6897088 0.95074452 44.70962484 2.83959961 44.72875977 C5.83999626 44.98626774 7.56676373 45.25842657 10 47 C10.875 49.9375 10.875 49.9375 11 53 C9 56 9 56 7.32592773 56.67480469 C2.03000882 57.41524386 -3.35961967 57.22611999 -8.69897461 57.24023438 C-10.9266476 57.24995266 -13.15340212 57.28100607 -15.38085938 57.3125 C-16.80468205 57.31902978 -18.22851129 57.32428035 -19.65234375 57.328125 C-20.94132568 57.3374707 -22.23030762 57.34681641 -23.55834961 57.35644531 C-28.67538189 56.82648382 -31.85560308 54.30884863 -35.6875 51.0625 C-36.55955078 50.33740234 -36.55955078 50.33740234 -37.44921875 49.59765625 C-41.18514211 45.74880826 -41.32639571 41.76497728 -41.4140625 36.609375 C-41.43342865 35.90476135 -41.4527948 35.20014771 -41.4727478 34.47418213 C-41.53232735 32.23290961 -41.57884123 29.99158511 -41.625 27.75 C-41.66319979 26.22654062 -41.70225269 24.70310238 -41.7421875 23.1796875 C-41.83801018 19.45331894 -41.92212107 15.72679165 -42 12 C-41.34 12 -40.68 12 -40 12 C-39.9071875 10.88625 -39.9071875 10.88625 -39.8125 9.75 C-38.74850088 6.14877223 -37.08629328 5.03243704 -34 3 C-33.34 3 -32.68 3 -32 3 C-31.67 2.01 -31.34 1.02 -31 0 C-21.99087963 -4.76953431 -9.00632477 -5.09634333 0 0 Z M-29 14 C-30.59628479 16.81989159 -30.59628479 16.81989159 -30 24 C-20.43 24 -10.86 24 -1 24 C-0.24844559 15.61206135 -0.24844559 15.61206135 -3.0625 11.4375 C-7.42609152 7.70026133 -12.95983765 8.25583448 -18.41015625 8.46484375 C-23.34845703 9.20102134 -25.50051478 10.50051478 -29 14 Z " fill="#010101" transform="translate(799,165)"/>
<path d="M0 0 C0.97710937 -0.020625 1.95421875 -0.04125 2.9609375 -0.0625 C9.92080276 -0.10001949 15.0732853 0.37501627 20.4296875 5.22265625 C20.98914063 5.91230469 21.54859375 6.60195312 22.125 7.3125 C22.69992187 8.00472656 23.27484375 8.69695312 23.8671875 9.41015625 C26.18858088 12.49878981 26.37802082 14.37058345 26.3828125 18.1875 C26.38410156 19.16460937 26.38539063 20.14171875 26.38671875 21.1484375 C26.38285156 22.17195313 26.37898438 23.19546875 26.375 24.25 C26.38080078 25.78527344 26.38080078 25.78527344 26.38671875 27.3515625 C26.38542969 28.32867187 26.38414062 29.30578125 26.3828125 30.3125 C26.38168457 31.21097656 26.38055664 32.10945313 26.37939453 33.03515625 C26.25 35.25 26.25 35.25 25.25 37.25 C12.38 37.58 -0.49 37.91 -13.75 38.25 C-11.41151858 44.16731018 -11.41151858 44.16731018 -7.75 46.25 C-4.61505396 46.58721408 -4.61505396 46.58721408 -1.03515625 46.59375 C-0.38300644 46.6083728 0.26914337 46.62299561 0.9410553 46.63806152 C3.02314155 46.68450199 5.10513398 46.71872963 7.1875 46.75 C9.92612964 46.79123009 12.66409818 46.84494174 15.40234375 46.90625 C16.61913818 46.92494141 17.83593262 46.94363281 19.08959961 46.96289062 C22.05540023 47.23232141 23.75278769 47.69559296 26.25 49.25 C26.25 51.89 26.25 54.53 26.25 57.25 C19.80769251 59.7283798 13.61705935 59.58678646 6.82739258 59.56567383 C4.68975295 59.56250334 2.55348567 59.5860486 0.41601562 59.61132812 C-0.95312327 59.61360056 -2.32226585 59.61430487 -3.69140625 59.61328125 C-5.54294312 59.61775269 -5.54294312 59.61775269 -7.43188477 59.62231445 C-11.01243302 59.22055328 -12.84841552 58.32414138 -15.75 56.25 C-16.68005859 55.62931641 -16.68005859 55.62931641 -17.62890625 54.99609375 C-22.83463136 50.9498805 -24.77602251 46.45392924 -26.75 40.25 C-26.255 39.755 -26.255 39.755 -25.75 39.25 C-25.64054884 37.39422829 -25.59412367 35.53467124 -25.57421875 33.67578125 C-25.55037109 32.53302734 -25.52652344 31.39027344 -25.50195312 30.21289062 C-25.4593323 27.79900211 -25.42789468 25.38488758 -25.40820312 22.97070312 C-25.21451593 14.93944103 -24.55437722 11.1525547 -18.93359375 5.38671875 C-18.35738281 4.90847656 -17.78117187 4.43023437 -17.1875 3.9375 C-16.60871094 3.44636719 -16.02992188 2.95523438 -15.43359375 2.44921875 C-10.90779494 -0.77449409 -5.30351514 0.02755073 0 0 Z M-12.75 15.25 C-14.17163702 18.98786479 -14.17163702 18.98786479 -13.75 26.25 C-4.18 26.25 5.39 26.25 15.25 26.25 C16.08567819 18.67401493 16.08567819 18.67401493 12.9375 15.375 C5.20664458 9.2622306 -4.87570922 8.98635961 -12.75 15.25 Z " fill="#010101" transform="translate(423.75,162.75)"/>
<path d="M0 0 C0.74878418 0.00966797 1.49756836 0.01933594 2.26904297 0.02929688 C15.38232397 0.31430624 15.38232397 0.31430624 19.6796875 4.0234375 C23.96354702 8.65138212 25.6581661 12.09389272 25.87792969 18.38842773 C25.90755798 19.19283798 25.93718628 19.99724823 25.9677124 20.82603455 C25.99383606 21.68652908 26.01995972 22.54702362 26.046875 23.43359375 C26.07477112 24.32611343 26.10266724 25.21863312 26.13140869 26.13819885 C26.18771782 28.02345266 26.24134549 29.90878821 26.29248047 31.79418945 C26.3746148 34.67399393 26.47817821 37.55254875 26.58203125 40.43164062 C26.63414448 42.26558763 26.68496859 44.09957182 26.734375 45.93359375 C26.76859558 46.79206406 26.80281616 47.65053436 26.83807373 48.53501892 C26.9390049 53.32408332 26.69139394 56.31171936 23.625 60.25 C20.25 59.9375 20.25 59.9375 16.625 59.25 C15.965 58.26 15.305 57.27 14.625 56.25 C13.903125 56.724375 13.18125 57.19875 12.4375 57.6875 C6.65597564 60.89945798 0.67700875 60.38834402 -5.75 60.1875 C-7.13058594 60.18459961 -7.13058594 60.18459961 -8.5390625 60.18164062 C-14.37375665 59.98576161 -17.87703549 59.04357011 -22.05834961 54.85791016 C-25.52009401 50.63038399 -25.67011891 46.64849443 -25.6875 41.3125 C-25.70425781 40.12785156 -25.72101562 38.94320312 -25.73828125 37.72265625 C-25.24028304 32.96222171 -23.54063012 29.69698912 -20.5625 26 C-16.20222717 22.51178174 -11.54630122 22.0007792 -6.1015625 22.0546875 C-4.37099609 22.06435547 -4.37099609 22.06435547 -2.60546875 22.07421875 C-1.41566406 22.09097656 -0.22585937 22.10773438 1 22.125 C2.21300781 22.13402344 3.42601563 22.14304688 4.67578125 22.15234375 C7.65905773 22.17583412 10.64192594 22.20868318 13.625 22.25 C13.3702486 20.93428397 13.09565859 19.62239624 12.8125 18.3125 C12.66167969 17.58160156 12.51085937 16.85070312 12.35546875 16.09765625 C12.11441406 15.48792969 11.87335938 14.87820312 11.625 14.25 C8.85057198 13.32519066 6.94402129 13.07744302 4.0625 12.96875 C2.74378906 12.91267578 2.74378906 12.91267578 1.3984375 12.85546875 C0.48320313 12.82066406 -0.43203125 12.78585938 -1.375 12.75 C-3.18765592 12.68106801 -5.00017159 12.60831382 -6.8125 12.53125 C-8.01712891 12.48581055 -8.01712891 12.48581055 -9.24609375 12.43945312 C-11.375 12.25 -11.375 12.25 -14.375 11.25 C-15.8533226 8.29335481 -15.43532783 5.50770263 -15.375 2.25 C-10.11001367 0.50882342 -5.53094177 -0.0746248 0 0 Z M-14.375 37.25 C-14.82458641 40.78246462 -14.88272232 43.19882675 -13.3203125 46.43359375 C-10.44778725 49.11577094 -7.55014625 48.93021915 -3.8125 48.875 C-3.10029297 48.87242187 -2.38808594 48.86984375 -1.65429688 48.8671875 C4.90099985 48.62989169 9.52094596 46.37250519 14.625 42.25 C14.36938677 39.9068787 14.03229228 37.57156597 13.625 35.25 C9.7606088 33.3178044 5.00063211 34.02160423 0.75 34 C-0.76013672 33.9690625 -0.76013672 33.9690625 -2.30078125 33.9375 C-3.75677734 33.92976563 -3.75677734 33.92976563 -5.2421875 33.921875 C-6.13019043 33.9125293 -7.01819336 33.90318359 -7.93310547 33.89355469 C-10.89988837 34.32661838 -12.25650933 35.14666306 -14.375 37.25 Z " fill="#010101" transform="translate(64.375,161.75)"/>
<path d="M0 0 C1.97465362 1.53447811 2.88427136 2.44351844 3.39872742 4.9172821 C3.40983047 5.63898087 3.42093353 6.36067963 3.43237305 7.10424805 C3.46206429 8.3351844 3.46206429 8.3351844 3.49235535 9.59098816 C3.49874527 10.47232925 3.50513519 11.35367035 3.51171875 12.26171875 C3.52966995 13.16751175 3.54762115 14.07330475 3.56611633 15.00654602 C3.62030659 17.90014996 3.65414286 20.79358815 3.6875 23.6875 C3.72066539 25.64911165 3.75515432 27.61070141 3.79101562 29.57226562 C3.87603806 34.38139097 3.9428076 39.19046641 4 44 C5.89716645 42.27227744 7.79275305 40.54287266 9.6875 38.8125 C10.21794922 38.32974609 10.74839844 37.84699219 11.29492188 37.34960938 C13.82657589 35.03539804 16.29423155 32.70237184 18.70703125 30.26171875 C21 28 21 28 24 26 C24.66 25.34 25.32 24.68 26 24 C29.25 22.1875 29.25 22.1875 33 21 C36.4375 22.3125 36.4375 22.3125 39 24 C39.375 27.1875 39.375 27.1875 39 31 C37.19771976 33.2472877 35.45540267 34.37943424 33 36 C32.34 36 31.68 36 31 36 C31 36.66 31 37.32 31 38 C29.46729429 39.35135503 27.87223227 40.63253887 26.25 41.875 C22.94152325 44.41923797 19.89153346 46.98685999 17 50 C18.22874903 50.95886875 19.45804313 51.91703899 20.6875 52.875 C21.49960938 53.50792969 22.31171875 54.14085937 23.1484375 54.79296875 C25.20963997 56.38828299 27.27632773 57.97395756 29.3515625 59.55078125 C29.92430908 59.98729004 30.49705566 60.42379883 31.0871582 60.87353516 C32.21665246 61.73372167 33.34793638 62.5915645 34.48120117 63.44677734 C42.49640946 69.56116988 42.49640946 69.56116988 43.875 73.5 C44.02271961 76.45439227 43.8865957 77.7032748 42 80 C39.2890625 80.875 39.2890625 80.875 36 81 C33.67322805 79.66692172 31.94511773 78.46137094 29.9375 76.75 C29.38529785 76.30269531 28.8330957 75.85539062 28.26416016 75.39453125 C26.49212198 73.94927673 24.74456377 72.4782656 23 71 C22.4004248 70.49662109 21.80084961 69.99324219 21.18310547 69.47460938 C18.85542416 67.52013485 16.53003482 65.56375868 14.22631836 63.58105469 C11.87987264 61.56166683 9.58090798 59.72060532 7 58 C5.68 58.66 4.36 59.32 3 60 C3.02356567 60.84763916 3.02356567 60.84763916 3.04760742 61.71240234 C3.10987045 64.26650023 3.14896136 66.82043871 3.1875 69.375 C3.22520508 70.70917969 3.22520508 70.70917969 3.26367188 72.0703125 C3.27817383 73.34648437 3.27817383 73.34648437 3.29296875 74.6484375 C3.31653442 75.82672119 3.31653442 75.82672119 3.34057617 77.02880859 C3.22818604 77.67930176 3.1157959 78.32979492 3 79 C0 81 0 81 -3.0625 80.75 C-6 80 -6 80 -8 78 C-8.21710632 75.56305588 -8.31135569 73.23614693 -8.31884766 70.79638672 C-8.32889328 70.0548233 -8.3389389 69.31325989 -8.34928894 68.54922485 C-8.38023396 66.09272045 -8.3971872 63.63632557 -8.4140625 61.1796875 C-8.43276508 59.47859751 -8.4523378 57.77751689 -8.4727478 56.07644653 C-8.52417132 51.59500641 -8.56374216 47.11353617 -8.60089111 42.63195801 C-8.64086688 38.06055185 -8.69198845 33.48927205 -8.7421875 28.91796875 C-8.83906769 19.94540113 -8.9234336 10.97276234 -9 2 C-5.78173668 0.28495946 -3.69116133 -0.47322581 0 0 Z " fill="#010101" transform="translate(191,141)"/>
<path d="M0 0 C0.98608749 0.00636726 0.98608749 0.00636726 1.99209595 0.01286316 C4.07068641 0.02951898 6.14827024 0.06714255 8.2265625 0.10546875 C9.64451714 0.1205327 11.06248714 0.1342181 12.48046875 0.14648438 C15.9378214 0.17937837 19.39459353 0.2310671 22.8515625 0.29296875 C22.8515625 0.95296875 22.8515625 1.61296875 22.8515625 2.29296875 C23.6146875 2.54046875 24.3778125 2.78796875 25.1640625 3.04296875 C28.17322761 4.44258043 29.2784122 5.3950603 30.8515625 8.29296875 C31.27292807 11.17230011 31.26816567 12.62177475 29.7265625 15.10546875 C26.96802297 16.85254379 25.05317486 16.68500292 21.8515625 16.29296875 C21.24924805 15.79627686 20.64693359 15.29958496 20.02636719 14.7878418 C17.19047789 12.83856585 15.40899298 12.94770196 11.9921875 13 C10.87714844 13.00966797 9.76210938 13.01933594 8.61328125 13.02929688 C7.45441406 13.05443359 6.29554688 13.07957031 5.1015625 13.10546875 C3.92722656 13.11900391 2.75289063 13.13253906 1.54296875 13.14648438 C-1.35463048 13.18182095 -4.25130177 13.23115896 -7.1484375 13.29296875 C-4.59457705 16.30121736 -1.79507359 17.50501405 1.8046875 19.03515625 C2.98160156 19.54433594 4.15851563 20.05351563 5.37109375 20.578125 C7.23062996 21.37227647 9.09132826 22.16362507 10.95263672 22.95361328 C28.31335182 30.35030485 28.31335182 30.35030485 31.2890625 36.04296875 C32.28858186 41.81796949 33.0222158 48.10462698 29.8515625 53.29296875 C23.67962572 59.51795942 18.19956239 59.47178989 9.86132812 59.52734375 C9.15145752 59.52927734 8.44158691 59.53121094 7.71020508 59.53320312 C5.55705829 59.54288781 3.40487518 59.57391327 1.25195312 59.60546875 C-0.12759853 59.61200164 -1.50715698 59.61725099 -2.88671875 59.62109375 C-4.75904175 59.6351123 -4.75904175 59.6351123 -6.66918945 59.64941406 C-11.72849771 59.13109324 -14.96667563 57.44442903 -18.5859375 53.91796875 C-20.1484375 51.29296875 -20.1484375 51.29296875 -19.9609375 48.60546875 C-19.1484375 46.29296875 -19.1484375 46.29296875 -18.1484375 44.29296875 C-10.60351347 43.91572255 -10.60351347 43.91572255 -8.34692383 45.78637695 C-5.64162728 47.64027868 -4.08652593 47.6794819 -0.83203125 47.69140625 C0.17923828 47.69527344 1.19050781 47.69914062 2.23242188 47.703125 C3.28236328 47.69152344 4.33230469 47.67992187 5.4140625 47.66796875 C6.46787109 47.67957031 7.52167969 47.69117188 8.60742188 47.703125 C10.12239258 47.69732422 10.12239258 47.69732422 11.66796875 47.69140625 C12.59037354 47.68802246 13.51277832 47.68463867 14.46313477 47.68115234 C17.24378574 47.22922195 18.12351133 46.46047657 19.8515625 44.29296875 C18.88216704 41.85562249 18.24491054 40.54066681 15.99487305 39.1237793 C15.25019775 38.812229 14.50552246 38.50067871 13.73828125 38.1796875 C12.9078833 37.82213379 12.07748535 37.46458008 11.22192383 37.09619141 C10.33657959 36.72800293 9.45123535 36.35981445 8.5390625 35.98046875 C6.72245697 35.19356109 4.9073517 34.40318114 3.09375 33.609375 C2.20268555 33.22023926 1.31162109 32.83110352 0.39355469 32.43017578 C-4.92576816 30.05047872 -10.31152825 27.55134043 -15.1484375 24.29296875 C-15.4784375 23.30296875 -15.8084375 22.31296875 -16.1484375 21.29296875 C-16.8084375 21.29296875 -17.4684375 21.29296875 -18.1484375 21.29296875 C-18.92929491 9.44128847 -18.92929491 9.44128847 -16.0234375 5.16796875 C-10.51487143 1.57542566 -6.6543349 -0.08531199 0 0 Z " fill="#010101" transform="translate(490.1484375,72.70703125)"/>
<path d="M0 0 C7.92 0 15.84 0 24 0 C24 0.66 24 1.32 24 2 C24.99 2 25.98 2 27 2 C27 2.66 27 3.32 27 4 C27.59425781 4.10054688 28.18851562 4.20109375 28.80078125 4.3046875 C31.40347263 5.12756328 32.40489519 6.08119089 34.1875 8.125 C34.69667969 8.68445313 35.20585937 9.24390625 35.73046875 9.8203125 C39.1764953 15.73687501 38.18323505 23.83814493 38.1875 30.5 C38.19974609 31.50675781 38.21199219 32.51351562 38.22460938 33.55078125 C38.23844009 40.58600734 38.23538178 46.37342641 33.5 51.9375 C31 54 31 54 29 54 C29 54.66 29 55.32 29 56 C22.76185608 60.45581709 16.83837427 60.12085199 9.5 59.75 C8.23736328 59.70939453 8.23736328 59.70939453 6.94921875 59.66796875 C2.14335502 59.43335178 -1.05270628 58.98146653 -5 56 C-6.19882812 55.18402344 -6.19882812 55.18402344 -7.421875 54.3515625 C-8.19015625 53.78179687 -8.9584375 53.21203125 -9.75 52.625 C-10.52859375 52.06039062 -11.3071875 51.49578125 -12.109375 50.9140625 C-17.00538471 45.95735845 -15.26474332 36.09443765 -15.3125 29.625 C-15.34150391 28.32304688 -15.37050781 27.02109375 -15.40039062 25.6796875 C-15.45594207 17.30423815 -14.86957801 12.67574009 -9.5 6.1875 C-6.58426782 3.87921203 -3.61166347 2.77392789 0 2 C0 1.34 0 0.68 0 0 Z M-1.61938477 16.29418945 C-3.47875173 18.59151871 -3.37320494 20.03360154 -3.36328125 22.96484375 C-3.36263672 23.92970703 -3.36199219 24.89457031 -3.36132812 25.88867188 C-3.34521484 26.89478516 -3.32910156 27.90089844 -3.3125 28.9375 C-3.31572266 29.93974609 -3.31894531 30.94199219 -3.32226562 31.97460938 C-3.32470213 38.26099095 -3.32470213 38.26099095 -1 44 C-0.34 44 0.32 44 1 44 C1 44.66 1 45.32 1 46 C7.36613968 48.88951367 13.94244765 49.14658213 20.5 46.6875 C22.72590621 45.18501331 24.34330824 44.08736091 26 42 C26.66898951 38.07396504 26.50934592 34.10168875 26.5 30.125 C26.54253906 28.49111328 26.54253906 28.49111328 26.5859375 26.82421875 C26.64752904 20.36781588 26.64752904 20.36781588 23.65625 14.8046875 C19.58147219 12.03623552 16.45777352 11.81635387 11.625 11.75 C10.50351562 11.72421875 9.38203125 11.6984375 8.2265625 11.671875 C3.98113324 12.10361357 1.64935276 13.68186054 -1.61938477 16.29418945 Z " fill="#010101" transform="translate(269,73)"/>
<path d="M0 0 C1.31484375 -0.01740234 1.31484375 -0.01740234 2.65625 -0.03515625 C9.67765955 -0.00343301 14.41544764 1.67667865 19.75 6.375 C20.32234375 6.87 20.8946875 7.365 21.484375 7.875 C26.01687693 12.3607751 25.95690065 17.44887837 26.04541016 23.45800781 C26.01859021 26.97496312 25.9244863 30.48476911 25.8125 34 C25.79380859 35.20140625 25.77511719 36.4028125 25.75585938 37.640625 C25.4115716 48.53703115 25.4115716 48.53703115 21 53.375 C14.33522119 59.52710351 8.24876628 59.73910813 -0.4375 59.75 C-1.46166016 59.77449219 -2.48582031 59.79898438 -3.54101562 59.82421875 C-9.58972438 59.84770888 -13.23042091 59.46857576 -18 55.375 C-18.60328125 54.94316406 -19.2065625 54.51132813 -19.828125 54.06640625 C-23.1944916 51.39365914 -24.7541143 49.4459468 -26 45.375 C-26.36486875 41.08900847 -26.32947214 36.81048401 -26.31567383 32.51000977 C-26.31251438 30.44689046 -26.33599935 28.38520797 -26.36132812 26.32226562 C-26.36197266 25.01064453 -26.36261719 23.69902344 -26.36328125 22.34765625 C-26.36626221 21.15406494 -26.36924316 19.96047363 -26.37231445 18.73071289 C-25.79047215 13.48650146 -23.76332925 9.5324909 -19.6875 6.1875 C-19.13449219 5.71957031 -18.58148438 5.25164062 -18.01171875 4.76953125 C-11.91884938 0.54593054 -7.23120794 -0.09570716 0 0 Z M-14 17.375 C-15.42098885 21.63796656 -15.26461062 25.721017 -15.3125 30.1875 C-15.34150391 31.07759766 -15.37050781 31.96769531 -15.40039062 32.88476562 C-15.45513403 38.56544621 -14.8824088 41.91897405 -11 46.375 C-7.20836973 48.90275351 -4.19125969 48.59943035 0.1875 48.5 C0.93708984 48.49097656 1.68667969 48.48195312 2.45898438 48.47265625 C4.30612654 48.44912578 6.15310412 48.41325561 8 48.375 C8 47.715 8 47.055 8 46.375 C8.61875 46.08625 9.2375 45.7975 9.875 45.5 C12.13325765 44.43779958 12.13325765 44.43779958 14 42.375 C14.56377442 38.48190355 14.50959051 34.55410481 14.5625 30.625 C14.61212891 29.53960937 14.66175781 28.45421875 14.71289062 27.3359375 C14.84507039 21.52319518 14.84507039 21.52319518 12.65454102 16.2890625 C9.65800419 13.45099031 7.4832282 12.46295486 3.39453125 11.71875 C2.21246094 11.7703125 1.03039062 11.821875 -0.1875 11.875 C-1.37730469 11.9059375 -2.56710938 11.936875 -3.79296875 11.96875 C-8.28165206 12.537353 -11.08778438 13.90807665 -14 17.375 Z " fill="#010101" transform="translate(137,72.625)"/>
<path d="M0 0 C1.07558231 2.99087181 1.1265093 5.84013771 1.12939453 8.99633789 C1.13254669 9.98739029 1.13569885 10.97844269 1.13894653 11.99952698 C1.1369223 13.06315964 1.13489807 14.1267923 1.1328125 15.22265625 C1.13376923 16.31968369 1.13472595 17.41671112 1.13571167 18.54698181 C1.13639178 20.86441098 1.13454924 23.18184207 1.13037109 25.49926758 C1.12501539 29.05228944 1.13032445 32.60518517 1.13671875 36.15820312 C1.13605804 38.40885445 1.13477702 40.65950569 1.1328125 42.91015625 C1.13483673 43.97581314 1.13686096 45.04147003 1.13894653 46.13941956 C1.13421829 47.62126991 1.13421829 47.62126991 1.12939453 49.13305664 C1.12859894 50.00257462 1.12780334 50.87209259 1.12698364 51.76795959 C1 54 1 54 0 57 C-6.43925234 58.3364486 -6.43925234 58.3364486 -8.875 56.875 C-10.22738842 54.62101931 -10.53647189 52.57047405 -11 50 C-11.52464844 50.49371094 -12.04929687 50.98742187 -12.58984375 51.49609375 C-18.13943902 56.08535972 -22.70067118 57.72359575 -29.75 58.125 C-30.47050537 58.17068115 -31.19101074 58.2163623 -31.93334961 58.26342773 C-37.91980401 58.42455097 -41.88048461 56.89037859 -46.3125 52.9375 C-53.84881514 44.28469373 -51.19720296 22.62530953 -51.25 11.625 C-51.259104 10.69913086 -51.26820801 9.77326172 -51.27758789 8.81933594 C-51.27166626 7.53591309 -51.27166626 7.53591309 -51.265625 6.2265625 C-51.26336914 5.47971191 -51.26111328 4.73286133 -51.25878906 3.96337891 C-51 2 -51 2 -49 -1 C-42.875 -1.4375 -42.875 -1.4375 -40 0 C-38.36905494 8.42121959 -38.68204313 17.18600632 -38.52319336 25.7421875 C-38.48327539 27.79975575 -38.43183004 29.85679321 -38.37890625 31.9140625 C-38.3538501 33.1304541 -38.32879395 34.3468457 -38.30297852 35.60009766 C-37.99815987 39.02064917 -37.2209628 41.80210943 -36 45 C-27.88184347 46.51513981 -23.05290194 43.69245073 -16.56005859 39.28930664 C-13.64990295 37.30555675 -13.64990295 37.30555675 -11 35 C-10.9122609 32.96256598 -10.89304689 30.92211363 -10.90234375 28.8828125 C-10.90556641 27.63628906 -10.90878906 26.38976562 -10.91210938 25.10546875 C-10.92048828 23.79191406 -10.92886719 22.47835937 -10.9375 21.125 C-10.94201172 19.81917969 -10.94652344 18.51335937 -10.95117188 17.16796875 C-10.95992847 14.74364326 -10.97072473 12.31932376 -10.98413086 9.89501953 C-11.00723753 5.67965203 -10.99365707 2.78794844 -9 -1 C-5.6518462 -2.73180369 -3.16576248 -1.79678411 0 0 Z " fill="#010101" transform="translate(665,164)"/>
<path d="M0 0 C2.61281488 5.87883349 2.18328202 11.70731728 2 18 C3.14597656 17.89300781 4.29195313 17.78601563 5.47265625 17.67578125 C7.00253101 17.5537667 8.53248354 17.43272462 10.0625 17.3125 C10.81466797 17.23966797 11.56683594 17.16683594 12.34179688 17.09179688 C17.77226803 16.69215181 21.15669114 17.49794536 26 20 C26.1875 23.375 26.1875 23.375 26 27 C22.74610012 29.16926659 21.86604043 29.24080049 18.11328125 29.1953125 C17.17548828 29.18886719 16.23769531 29.18242187 15.27148438 29.17578125 C13.80678711 29.15064453 13.80678711 29.15064453 12.3125 29.125 C11.32443359 29.11597656 10.33636719 29.10695312 9.31835938 29.09765625 C6.87866235 29.0740843 4.43945303 29.04118022 2 29 C2.11795429 33.82398914 2.24218018 38.64775958 2.37231445 43.47143555 C2.41572297 45.11364303 2.45739358 46.75589739 2.49731445 48.39819336 C2.5548744 50.75388745 2.61860892 53.10934428 2.68359375 55.46484375 C2.70030624 56.20339096 2.71701874 56.94193817 2.73423767 57.7028656 C2.53548013 61.14300627 2.53548013 61.14300627 4 64 C6.34987262 64.23527773 8.70556039 64.41386417 11.0625 64.5625 C12.99802734 64.68818359 12.99802734 64.68818359 14.97265625 64.81640625 C15.97167969 64.87699219 16.97070312 64.93757813 18 65 C18.29261719 64.04996094 18.58523438 63.09992188 18.88671875 62.12109375 C20.10227335 58.71327577 20.7705737 57.56857849 24 56 C27.37036311 56.24074022 28.58798021 56.58798021 31 59 C31.47670783 63.76707828 31.50419525 66.04563042 29.25 70.3125 C25.37608984 74.93967046 22.98920662 76.26244662 17 77 C-0.14573142 77.67210293 -0.14573142 77.67210293 -5.5 73.25 C-10.04025731 68.45750617 -10.2808551 62.94846903 -10.1953125 56.63671875 C-10.1924826 55.84473587 -10.18965271 55.05275299 -10.18673706 54.23677063 C-10.17558863 51.72019001 -10.15049422 49.20397211 -10.125 46.6875 C-10.11496329 44.97591662 -10.10583864 43.26432763 -10.09765625 41.55273438 C-10.07566681 37.36835094 -10.04117408 33.18423686 -10 29 C-11.0725 29.020625 -12.145 29.04125 -13.25 29.0625 C-17 29 -17 29 -21 28 C-21 25.03 -21 22.06 -21 19 C-13.375 16.875 -13.375 16.875 -10 18 C-10.03480469 16.95199219 -10.06960938 15.90398437 -10.10546875 14.82421875 C-10.13360937 13.44532853 -10.16090924 12.06642098 -10.1875 10.6875 C-10.21263672 9.99720703 -10.23777344 9.30691406 -10.26367188 8.59570312 C-10.33725849 3.51822647 -10.33725849 3.51822647 -8.71875 1.03125 C-5.92169113 -0.64698532 -3.16974089 -0.1794193 0 0 Z " fill="#010101" transform="translate(347,145)"/>
<path d="M0 0 C2.01167675 5.78357065 2.22084624 10.90218999 2 17 C3.07378906 16.90460938 4.14757812 16.80921875 5.25390625 16.7109375 C6.69005257 16.59829857 8.12625367 16.48635654 9.5625 16.375 C10.26697266 16.31054688 10.97144531 16.24609375 11.69726562 16.1796875 C16.62294699 15.81650362 20.32587966 16.39077591 25 18 C26.125 24.75 26.125 24.75 25 27 C22.05868109 27.98043964 20.17498335 28.11621202 17.11328125 28.09765625 C16.17548828 28.09443359 15.23769531 28.09121094 14.27148438 28.08789062 C13.29501953 28.07951172 12.31855469 28.07113281 11.3125 28.0625 C10.32443359 28.05798828 9.33636719 28.05347656 8.31835938 28.04882812 C5.87884526 28.03704303 3.43945311 28.02059011 1 28 C1.11829766 32.50253816 1.24254934 37.00485779 1.37231445 41.50708008 C1.41561833 43.03861018 1.45729667 44.57018715 1.49731445 46.10180664 C1.55512732 48.30369182 1.61878969 50.50534211 1.68359375 52.70703125 C1.70030624 53.39150833 1.71701874 54.07598541 1.73423767 54.78120422 C1.8273555 57.77120104 2.04687437 60.14062311 3 63 C7.7131825 63.34025649 12.2982645 63.54607846 17 63 C19.67571151 60.28016286 19.67571151 60.28016286 21 57 C23.5 55.5 23.5 55.5 26 55 C28.74021297 55.91340432 29.69964653 56.39929305 31 59 C31.43537562 62.83130541 31.16384521 64.69658294 29.3125 68.125 C24.03765973 74.68290953 24.03765973 74.68290953 19.53686523 75.38330078 C16.5354063 75.53936119 13.56753322 75.5452168 10.5625 75.5 C9.53833984 75.51546875 8.51417969 75.5309375 7.45898438 75.546875 C1.54392615 75.51624687 -2.5162388 75.26348133 -7 71 C-10.14913881 65.98675902 -10.40679504 62.04227699 -10.29296875 56.3203125 C-10.28872391 55.50754852 -10.28447906 54.69478455 -10.28010559 53.85739136 C-10.26340804 51.27958041 -10.22577362 48.7025718 -10.1875 46.125 C-10.17244158 44.36980301 -10.1587552 42.61459369 -10.14648438 40.859375 C-10.11353392 36.57261087 -10.06181453 32.28644114 -10 28 C-10.66 28 -11.32 28 -12 28 C-12.33 28.66 -12.66 29.32 -13 30 C-13 29.34 -13 28.68 -13 28 C-13.94875 27.896875 -14.8975 27.79375 -15.875 27.6875 C-19 27 -19 27 -21 24 C-20.6758631 20.67759676 -20.39223697 19.39223697 -18 17 C-15.34462628 16.43479997 -12.70855287 16.26211802 -10 16 C-10.09539063 15.18015625 -10.19078125 14.3603125 -10.2890625 13.515625 C-10.39992188 12.43796875 -10.51078125 11.3603125 -10.625 10.25 C-10.79902344 8.64898437 -10.79902344 8.64898437 -10.9765625 7.015625 C-11.00047979 3.93826763 -10.7232326 2.50865154 -9 0 C-5.93109813 -1.53445094 -3.29905734 -0.54984289 0 0 Z " fill="#010101" transform="translate(563,146)"/>
<path d="M0 0 C2.04126336 -0.00973189 4.08153027 -0.04078194 6.12255859 -0.07226562 C7.40775391 -0.07742187 8.69294922 -0.08257812 10.01708984 -0.08789062 C11.19722656 -0.09723633 12.37736328 -0.10658203 13.59326172 -0.11621094 C16.54833984 0.24023438 16.54833984 0.24023438 18.47607422 1.53027344 C20.27607165 4.40076115 19.20614684 7.07080068 18.54833984 10.24023438 C15.57489573 11.23138241 13.5407221 11.37778276 10.43505859 11.41601562 C8.93362305 11.45178711 8.93362305 11.45178711 7.40185547 11.48828125 C5.30309938 11.53100731 3.20407952 11.56238903 1.10498047 11.58203125 C-5.07743529 11.7525533 -8.70775097 12.18593499 -13.45166016 16.24023438 C-14.37978516 16.94148438 -15.30791016 17.64273438 -16.26416016 18.36523438 C-18.5198733 20.05327983 -18.5198733 20.05327983 -19.45166016 22.24023438 C-19.5761179 24.71202312 -19.63681935 27.14334607 -19.63916016 29.61523438 C-19.65140625 30.288125 -19.66365234 30.96101563 -19.67626953 31.65429688 C-19.68713888 35.33538219 -19.58766584 38.16831101 -17.45166016 41.24023438 C-15.56849857 42.3485986 -15.56849857 42.3485986 -13.45166016 43.24023438 C-12.86054443 43.74619141 -12.26942871 44.25214844 -11.66040039 44.7734375 C-8.91685108 46.59539442 -7.25908876 46.62213258 -3.98681641 46.64648438 C-2.41577148 46.67935547 -2.41577148 46.67935547 -0.81298828 46.71289062 C0.275625 46.72191406 1.36423828 46.7309375 2.48583984 46.74023438 C4.64093977 46.75816153 6.79597953 46.78895675 8.95068359 46.83398438 C9.90450928 46.84107422 10.85833496 46.84816406 11.84106445 46.85546875 C15.06914371 47.31425249 16.96827844 48.26266063 19.54833984 50.24023438 C19.93526566 53.40012852 19.97894112 55.37903182 18.54833984 58.24023438 C14.54730532 58.45887642 10.54582823 58.65539295 6.54272461 58.83227539 C5.183712 58.89534648 3.82495613 58.96425038 2.46655273 59.03930664 C-7.80315016 59.60125513 -13.98063965 59.37935144 -22.13916016 52.80273438 C-23.22777344 51.93841797 -23.22777344 51.93841797 -24.33837891 51.05664062 C-29.39309961 46.71201008 -32.1786793 43.71672584 -32.71728516 36.85742188 C-32.70107464 32.9750022 -32.61656095 29.1193292 -32.45166016 25.24023438 C-32.41814453 24.21414062 -32.38462891 23.18804687 -32.35009766 22.13085938 C-31.76315241 16.19432749 -30.05886904 13.3415471 -25.63916016 9.30273438 C-23.93196793 7.9209676 -22.20270574 6.56598853 -20.45166016 5.24023438 C-19.58154297 4.51707031 -18.71142578 3.79390625 -17.81494141 3.04882812 C-12.56726808 -0.96715989 -6.32506048 0.01829374 0 0 Z " fill="#010101" transform="translate(502.45166015625,162.759765625)"/>
<path d="M0 0 C0.91072266 0.00128906 1.82144531 0.00257812 2.75976562 0.00390625 C9.51527256 0.09351504 9.51527256 0.09351504 12.9375 2.375 C13.29826355 5.15908813 13.29826355 5.15908813 13.27807617 8.75244141 C13.27873329 9.73311333 13.27873329 9.73311333 13.27940369 10.7335968 C13.27731081 12.89822075 13.2539578 15.0620736 13.23046875 17.2265625 C13.22487453 18.72585629 13.22060361 20.22515556 13.21760559 21.72445679 C13.20614298 25.67345277 13.176664 29.62211852 13.14349365 33.57098389 C13.11282305 37.59936047 13.09910672 41.62779035 13.08398438 45.65625 C13.05179532 53.56265167 13.00058227 61.46878477 12.9375 69.375 C13.84113281 69.32859375 14.74476563 69.2821875 15.67578125 69.234375 C16.85527344 69.19828125 18.03476563 69.1621875 19.25 69.125 C20.42175781 69.07859375 21.59351563 69.0321875 22.80078125 68.984375 C25.9375 69.375 25.9375 69.375 27.86328125 71.23046875 C28.9375 73.375 28.9375 73.375 28.8125 75.9375 C27.81294269 78.72198109 27.36155755 79.68508213 24.9375 81.375 C22.16451534 81.60344757 19.63864259 81.65596996 16.875 81.5546875 C16.08730225 81.53536163 15.29960449 81.51603577 14.48803711 81.49612427 C12.82350983 81.45125458 11.15917587 81.39864218 9.49511719 81.33886719 C6.94735532 81.25034243 4.40027987 81.19378481 1.8515625 81.140625 C0.23431743 81.09306486 -1.38287433 81.04364789 -3 80.9921875 C-3.76256104 80.97638641 -4.52512207 80.96058533 -5.31079102 80.94430542 C-10.60706429 80.72467786 -10.60706429 80.72467786 -13.06640625 78.83642578 C-13.55947266 78.11302002 -13.55947266 78.11302002 -14.0625 77.375 C-12.1875 70.5 -12.1875 70.5 -11.0625 69.375 C-5.1225 68.88 -5.1225 68.88 0.9375 68.375 C0.9375 49.895 0.9375 31.415 0.9375 12.375 C-2.0325 12.375 -5.0025 12.375 -8.0625 12.375 C-11.48810709 11.01903053 -12.65469476 10.31055319 -14.125 6.9375 C-14.0625 4.375 -14.0625 4.375 -12.6875 2.23828125 C-8.65502895 -0.62405311 -4.81803423 -0.13012459 0 0 Z " fill="#010101" transform="translate(201.0625,51.625)"/>
<path d="M0 0 C3.22201134 3.9054683 4.68768079 6.43994064 5.0625 11.5 C4.56918043 14.54961189 3.86436957 17.51784044 3.0625 20.5 C-2.5625 20.75 -2.5625 20.75 -5.9375 18.5 C-5.9375 17.84 -5.9375 17.18 -5.9375 16.5 C-6.5975 16.17 -7.2575 15.84 -7.9375 15.5 C-7.9375 13.19 -7.9375 10.88 -7.9375 8.5 C-13.86764671 7.91134573 -18.52136472 7.59788286 -23.4375 11.3125 C-25.24658774 12.86478926 -26.90079704 14.46086816 -28.53125 16.19921875 C-29.9375 17.5 -29.9375 17.5 -31.9375 17.5 C-32.2675 18.49 -32.5975 19.48 -32.9375 20.5 C-33.5975 20.83 -34.2575 21.16 -34.9375 21.5 C-34.95731934 22.4286084 -34.97713867 23.3572168 -34.99755859 24.31396484 C-35.07558613 27.7545052 -35.16227462 31.19459891 -35.25488281 34.63476562 C-35.29319998 36.12458889 -35.32804808 37.61450554 -35.359375 39.10449219 C-35.40496729 41.24448048 -35.46296874 43.38382436 -35.5234375 45.5234375 C-35.5548584 46.81169434 -35.5862793 48.09995117 -35.61865234 49.42724609 C-35.9375 52.5 -35.9375 52.5 -37.9375 54.5 C-41.375 54.875 -41.375 54.875 -44.9375 54.5 C-47.0590677 52.38423564 -47.86102652 51.02043236 -48.29826355 48.04486084 C-48.29160172 47.12996887 -48.28493988 46.2150769 -48.27807617 45.27246094 C-48.27784958 44.23168396 -48.27762299 43.19090698 -48.27738953 42.11859131 C-48.26190567 41.00179993 -48.24642181 39.88500854 -48.23046875 38.734375 C-48.22622391 37.58584045 -48.22197906 36.43730591 -48.21760559 35.25396729 C-48.20081333 31.5857397 -48.16315898 27.91806153 -48.125 24.25 C-48.10995392 21.76302877 -48.09626539 19.27604892 -48.08398438 16.7890625 C-48.05090796 10.69252088 -48.00070256 4.59629969 -47.9375 -1.5 C-47.2775 -1.83 -46.6175 -2.16 -45.9375 -2.5 C-46.2675 -3.16 -46.5975 -3.82 -46.9375 -4.5 C-39.56218514 -4.8627204 -39.56218514 -4.8627204 -37 -3.375 C-35.55158488 -0.81897331 -35.25934417 1.60340247 -34.9375 4.5 C-34.256875 3.7575 -33.57625 3.015 -32.875 2.25 C-27.37940828 -3.13843533 -22.34027659 -5.16842192 -14.71875 -5.59765625 C-8.81084272 -5.39021569 -4.49342087 -3.82418797 0 0 Z " fill="#010101" transform="translate(373.9375,77.5)"/>
<path d="M0 0 C0.33 2.64 0.66 5.28 1 8 C1.64066406 7.44570312 2.28132812 6.89140625 2.94140625 6.3203125 C9.65596676 0.69649282 14.81873224 -2.5058224 23.87109375 -2.2578125 C27.72450267 -1.79116114 31.56299982 -0.82755152 35 1 C35.495 2.485 35.495 2.485 36 4 C36.66 4 37.32 4 38 4 C40.50720011 8.47788003 41.09619808 12.90150186 41 18 C39.5625 21.625 39.5625 21.625 38 24 C31.57370772 22.66624123 31.57370772 22.66624123 29.0625 19.75 C27.86330064 16.64618989 27.76976911 14.2999761 28 11 C22.40756041 10.67103297 18.69994409 10.58185884 14 14 C13.34 14 12.68 14 12 14 C11.67 14.99 11.34 15.98 11 17 C9.33789972 18.11521106 7.65501427 19.19961516 5.9609375 20.265625 C2.63165279 22.85651727 1.19520909 24.14813271 0.24316406 28.30273438 C0.16031609 32.15874477 0.32335983 35.90504242 0.625 39.75 C0.78052126 42.34796984 0.9193144 44.94701066 1.0390625 47.546875 C1.16595459 49.26148926 1.16595459 49.26148926 1.29541016 51.01074219 C1 54 1 54 -0.83056641 56.38769531 C-3.43703414 58.32480007 -4.82529788 58.35274468 -8 58 C-8.433125 57.0409375 -8.433125 57.0409375 -8.875 56.0625 C-9.82823451 53.84793921 -9.82823451 53.84793921 -12 53 C-12 36.17 -12 19.34 -12 2 C-11.34 2 -10.68 2 -10 2 C-10 1.01 -10 0.02 -10 -1 C-6.18510326 -2.46726798 -3.70988378 -1.43336419 0 0 Z " fill="#010101" transform="translate(697,164)"/>
<path d="M0 0 C1.96822886 1.96822886 1.66248381 5.34808709 2 8 C2.66 8 3.32 8 4 8 C4.33 7.01 4.66 6.02 5 5 C7.04520849 2.56522798 9.11952665 1.30085893 12 0 C12.66 -0.33 13.32 -0.66 14 -1 C22.32956516 -2.30754802 29.14469678 -2.13857488 37 1 C37 1.99 37 2.98 37 4 C37.66 4 38.32 4 39 4 C41.20322582 7.5496416 41.2686389 10.49648471 41.25 14.625 C41.25773437 16.34589844 41.25773437 16.34589844 41.265625 18.1015625 C41 21 41 21 39 23 C35.95639252 23.32378803 33.87078033 23.51045744 31.1875 21.9375 C29.45990169 19.11878697 29.41315561 16.24622265 29 13 C27.04911408 10.67931395 27.04911408 10.67931395 23.5625 10.3125 C17.0041911 10.43195918 12.57816618 15.8506246 8 20 C6.90558594 20.63421875 5.81117187 21.2684375 4.68359375 21.921875 C2.33644015 23.86610813 2.01798127 24.88401311 1.54199219 27.9543457 C1.44390158 31.67430298 1.52781968 35.3447664 1.6875 39.0625 C1.75766866 41.59495063 1.82423338 44.12750439 1.88671875 46.66015625 C1.93014404 47.78043213 1.97356934 48.90070801 2.01831055 50.05493164 C2.00242746 52.60956743 1.76464421 54.58163322 1 57 C-2.25 57.75 -2.25 57.75 -6 58 C-8.6177227 56.02765554 -9.83561155 54.80949871 -10.49447632 51.56504822 C-10.49162628 50.65920486 -10.48877625 49.75336151 -10.48583984 48.82006836 C-10.4919931 47.78897446 -10.49814636 46.75788055 -10.50448608 45.69554138 C-10.49011505 44.58816116 -10.47574402 43.48078094 -10.4609375 42.33984375 C-10.46002106 41.19842422 -10.45910461 40.0570047 -10.4581604 38.8809967 C-10.45212084 36.46936888 -10.4363644 34.05774868 -10.41162109 31.64624023 C-10.37510491 27.94812493 -10.37060179 24.25101116 -10.37109375 20.55273438 C-10.36126311 18.21092881 -10.34960634 15.86913005 -10.3359375 13.52734375 C-10.33371185 12.4179393 -10.33148621 11.30853485 -10.32919312 10.16551208 C-10.31643341 9.13757034 -10.30367371 8.1096286 -10.29052734 7.05053711 C-10.28290375 6.14548935 -10.27528015 5.24044159 -10.26742554 4.30796814 C-10 2 -10 2 -8 -1 C-4.36442231 -2.21185923 -3.36216382 -1.59260392 0 0 Z " fill="#010101" transform="translate(121,164)"/>
<path d="M0 0 C0.73412109 0.00128906 1.46824219 0.00257813 2.22460938 0.00390625 C7.28968301 0.08480361 10.51571095 0.89734598 15.6875 2.375 C16.0175 17.225 16.3475 32.075 16.6875 47.375 C19.9875 47.705 23.2875 48.035 26.6875 48.375 C28.0075 49.035 29.3275 49.695 30.6875 50.375 C31.5625 53.3125 31.5625 53.3125 31.6875 56.375 C29.6875 59.375 29.6875 59.375 27.55126953 60.05908203 C23.97944098 60.45310984 20.45423381 60.48715081 16.8671875 60.4296875 C15.75647385 60.41205856 15.75647385 60.41205856 14.62332153 60.39407349 C13.06505721 60.36545528 11.50685404 60.33331475 9.94873047 60.29785156 C8.35450955 60.26588233 6.7600349 60.24476902 5.16552734 60.234375 C2.85665236 60.2191694 0.55042514 60.17185852 -1.7578125 60.1171875 C-2.82662155 60.11838089 -2.82662155 60.11838089 -3.91702271 60.11959839 C-5.93017578 60.05029297 -5.93017578 60.05029297 -9.3125 59.375 C-11.28466797 56.82861328 -11.28466797 56.82861328 -12.3125 54.375 C-8.6875 49.5 -8.6875 49.5 -5.3125 48.375 C-2.0125 48.375 1.2875 48.375 4.6875 48.375 C4.6875 36.495 4.6875 24.615 4.6875 12.375 C0.7275 12.375 -3.2325 12.375 -7.3125 12.375 C-10.14578987 9.54171013 -11.0316375 8.02053172 -12.3125 4.375 C-8.86245304 -0.23113129 -5.37280896 -0.17646218 0 0 Z " fill="#010101" transform="translate(270.3125,161.625)"/>
<path d="M0 0 C2.98192888 2.98192888 2.9687437 5.20388378 3.1328125 9.3828125 C3.13023437 10.61773437 3.12765625 11.85265625 3.125 13.125 C3.12886719 14.98511719 3.12886719 14.98511719 3.1328125 16.8828125 C3 20 3 20 2 22 C2.83192871 21.9685791 2.83192871 21.9685791 3.68066406 21.93652344 C6.20359023 21.85316452 8.72622649 21.80128132 11.25 21.75 C12.12269531 21.71648437 12.99539063 21.68296875 13.89453125 21.6484375 C20.41598332 21.54887335 20.41598332 21.54887335 23.609375 24.015625 C24.06828125 24.67046875 24.5271875 25.3253125 25 26 C23.25 31.75 23.25 31.75 21 34 C19.02880859 34.22705078 19.02880859 34.22705078 16.6484375 34.1953125 C15.79765625 34.18886719 14.946875 34.18242187 14.0703125 34.17578125 C13.18085937 34.15902344 12.29140625 34.14226562 11.375 34.125 C10.02921875 34.11146484 10.02921875 34.11146484 8.65625 34.09765625 C6.43723414 34.0740497 4.21874923 34.0411231 2 34 C2.16113281 35.21042969 2.32226562 36.42085937 2.48828125 37.66796875 C2.889697 40.89279368 3.16155666 44.05920504 3.1875 47.3125 C3.20167969 48.13363281 3.21585938 48.95476562 3.23046875 49.80078125 C3 52 3 52 1 55 C-0.875 55.3984375 -0.875 55.3984375 -3 55.375 C-3.70125 55.38273437 -4.4025 55.39046875 -5.125 55.3984375 C-7 55 -7 55 -9 52 C-9.22705078 50.00708008 -9.22705078 50.00708008 -9.1953125 47.76953125 C-9.18886719 46.96708984 -9.18242188 46.16464844 -9.17578125 45.33789062 C-9.15902344 44.50451172 -9.14226563 43.67113281 -9.125 42.8125 C-9.11597656 41.96751953 -9.10695313 41.12253906 -9.09765625 40.25195312 C-9.07410703 38.16784757 -9.03823647 36.08388783 -9 34 C-10.25296875 34.04640625 -11.5059375 34.0928125 -12.796875 34.140625 C-14.44789281 34.17814813 -16.09893642 34.21454771 -17.75 34.25 C-18.575 34.28351563 -19.4 34.31703125 -20.25 34.3515625 C-26.42297754 34.45112665 -26.42297754 34.45112665 -29.578125 31.984375 C-30.04734375 31.32953125 -30.5165625 30.6746875 -31 30 C-30.40138258 27.64828869 -29.73075648 25.3140622 -29 23 C-26.703463 21.8517315 -25.41686833 21.88438825 -22.8671875 21.90234375 C-22.06152344 21.90556641 -21.25585938 21.90878906 -20.42578125 21.91210938 C-19.58402344 21.92048828 -18.74226562 21.92886719 -17.875 21.9375 C-17.02550781 21.94201172 -16.17601562 21.94652344 -15.30078125 21.95117188 C-13.20049091 21.96297126 -11.1002367 21.98090694 -9 22 C-9.02094727 21.44014404 -9.04189453 20.88028809 -9.06347656 20.3034668 C-9.14666202 17.76499414 -9.19866381 15.226808 -9.25 12.6875 C-9.28351562 11.80642578 -9.31703125 10.92535156 -9.3515625 10.01757812 C-9.45057345 3.50760807 -9.45057345 3.50760807 -7.1484375 0.9140625 C-4.55182706 -0.19067721 -2.79430878 -0.36767221 0 0 Z " fill="#010101" transform="translate(847,141)"/>
<path d="M0 0 C1.17175781 0.04640625 2.34351563 0.0928125 3.55078125 0.140625 C5.32001953 0.19476563 5.32001953 0.19476563 7.125 0.25 C8.48044922 0.31960937 8.48044922 0.31960937 9.86328125 0.390625 C11.60048639 4.09133787 12.05402718 6.59040474 11.55078125 10.640625 C11.45152344 11.51203125 11.35226562 12.3834375 11.25 13.28125 C10.86328125 15.390625 10.86328125 15.390625 9.86328125 16.390625 C7.74320009 16.56875854 5.61536513 16.65851728 3.48828125 16.703125 C2.32554687 16.74050781 1.1628125 16.77789062 -0.03515625 16.81640625 C-3.13671875 16.390625 -3.13671875 16.390625 -5.02734375 14.62109375 C-6.17299465 12.31769 -6.54161751 10.94198617 -6.51171875 8.390625 C-6.51945312 7.730625 -6.5271875 7.070625 -6.53515625 6.390625 C-5.69461099 2.17141741 -4.31244114 0.53704124 0 0 Z " fill="#010101" transform="translate(275.13671875,136.609375)"/>
<path d="M0 0 C0.33 0 0.66 0 1 0 C1 9.24 1 18.48 1 28 C0.67 28 0.34 28 0 28 C0 18.76 0 9.52 0 0 Z " fill="#000000" transform="translate(181,147)"/>
<path d="M0 0 C0.33 0 0.66 0 1 0 C1 8.91 1 17.82 1 27 C0.67 27 0.34 27 0 27 C0 18.09 0 9.18 0 0 Z " fill="#000900" transform="translate(181,181)"/>
<path d="M0 0 C0.33 0 0.66 0 1 0 C1 7.59 1 15.18 1 23 C0.67 23 0.34 23 0 23 C0 15.41 0 7.82 0 0 Z " fill="#000000" transform="translate(397,93)"/>
<path d="M0 0 C0.33 0 0.66 0 1 0 C1 4.62 1 9.24 1 14 C0.67 14 0.34 14 0 14 C0 9.38 0 4.76 0 0 Z " fill="#000000" transform="translate(397,182)"/>
<path d="M0 0 C0.33 0 0.66 0 1 0 C1 4.62 1 9.24 1 14 C0.67 14 0.34 14 0 14 C0 9.38 0 4.76 0 0 Z " fill="#000000" transform="translate(109,181)"/>
<path d="M0 0 C3 1 3 1 3 1 Z " fill="#000000" transform="translate(417,202)"/>
<path d="M0 0 C0.99 0.495 0.99 0.495 2 1 C1.01 1.495 1.01 1.495 0 2 C0 1.34 0 0.68 0 0 Z " fill="#000000" transform="translate(197,200)"/>
<path d="" fill="#000000" transform="translate(0,0)"/>
<path d="" fill="#000000" transform="translate(0,0)"/>
<path d="" fill="#000000" transform="translate(0,0)"/>
<path d="" fill="#000000" transform="translate(0,0)"/>
<path d="M0 0 C2 1 2 1 2 1 Z " fill="#000000" transform="translate(261,174)"/>
<path d="" fill="#000000" transform="translate(0,0)"/>
<path d="" fill="#000000" transform="translate(0,0)"/>
<path d="M0 0 C2 1 2 1 2 1 Z " fill="#000000" transform="translate(183,141)"/>
<path d="" fill="#FFFFFF" transform="translate(0,0)"/>
<path d="" fill="#FFFFFF" transform="translate(0,0)"/>
<path d="" fill="#FFFFFF" transform="translate(0,0)"/>
<path d="" fill="#FFFFFF" transform="translate(0,0)"/>
<path d="" fill="#FFFFFF" transform="translate(0,0)"/>
<path d="" fill="#FFFFFF" transform="translate(0,0)"/>
<path d="" fill="#FFFFFF" transform="translate(0,0)"/>
<path d="" fill="#FFFFFF" transform="translate(0,0)"/>
<path d="" fill="#FFFFFF" transform="translate(0,0)"/>
<path d="" fill="#FFFFFF" transform="translate(0,0)"/>
<path d="" fill="#FFFFFF" transform="translate(0,0)"/>
<path d="" fill="#FFFFFF" transform="translate(0,0)"/>
<path d="" fill="#FFFFFF" transform="translate(0,0)"/>
<path d="" fill="#FFFFFF" transform="translate(0,0)"/>
<path d="" fill="#FFFFFF" transform="translate(0,0)"/>
<path d="" fill="#FFFFFF" transform="translate(0,0)"/>
<path d="" fill="#FFFFFF" transform="translate(0,0)"/>
<path d="" fill="#000000" transform="translate(0,0)"/>
<path d="" fill="#000000" transform="translate(0,0)"/>
<path d="" fill="#FFFFFF" transform="translate(0,0)"/>
<path d="" fill="#000000" transform="translate(0,0)"/>
<path d="" fill="#FFFFFF" transform="translate(0,0)"/>
<path d="" fill="#000000" transform="translate(0,0)"/>
<path d="" fill="#FFFFFF" transform="translate(0,0)"/>
<path d="" fill="#000000" transform="translate(0,0)"/>
<path d="" fill="#000000" transform="translate(0,0)"/>
<path d="" fill="#000000" transform="translate(0,0)"/>
<path d="" fill="#FFFFFF" transform="translate(0,0)"/>
<path d="" fill="#000000" transform="translate(0,0)"/>
<path d="" fill="#FFFFFF" transform="translate(0,0)"/>
<path d="" fill="#000000" transform="translate(0,0)"/>
<path d="" fill="#000000" transform="translate(0,0)"/>
<path d="" fill="#000000" transform="translate(0,0)"/>
<path d="" fill="#000000" transform="translate(0,0)"/>
<path d="" fill="#FFFFFF" transform="translate(0,0)"/>
<path d="" fill="#000000" transform="translate(0,0)"/>
<path d="" fill="#000000" transform="translate(0,0)"/>
<path d="" fill="#FFFFFF" transform="translate(0,0)"/>
<path d="" fill="#FFFFFF" transform="translate(0,0)"/>
<path d="" fill="#000000" transform="translate(0,0)"/>
<path d="" fill="#000000" transform="translate(0,0)"/>
<path d="" fill="#000000" transform="translate(0,0)"/>
<path d="" fill="#000000" transform="translate(0,0)"/>
<path d="" fill="#000000" transform="translate(0,0)"/>
<path d="" fill="#000000" transform="translate(0,0)"/>
<path d="" fill="#000000" transform="translate(0,0)"/>
<path d="" fill="#000000" transform="translate(0,0)"/>
<path d="" fill="#FFFFFF" transform="translate(0,0)"/>
<path d="" fill="#000000" transform="translate(0,0)"/>
<path d="" fill="#000000" transform="translate(0,0)"/>
<path d="" fill="#000000" transform="translate(0,0)"/>
<path d="" fill="#FFFFFF" transform="translate(0,0)"/>
<path d="" fill="#FFFFFF" transform="translate(0,0)"/>
<path d="" fill="#FFFFFF" transform="translate(0,0)"/>
<path d="" fill="#FFFFFF" transform="translate(0,0)"/>
<path d="" fill="#FFFFFF" transform="translate(0,0)"/>
<path d="" fill="#FFFFFF" transform="translate(0,0)"/>
<path d="" fill="#FFFFFF" transform="translate(0,0)"/>
<path d="" fill="#FFFFFF" transform="translate(0,0)"/>
<path d="" fill="#000000" transform="translate(0,0)"/>
<path d="" fill="#000000" transform="translate(0,0)"/>
<path d="" fill="#FFFFFF" transform="translate(0,0)"/>
<path d="" fill="#FFFFFF" transform="translate(0,0)"/>
<path d="" fill="#FFFFFF" transform="translate(0,0)"/>
<path d="" fill="#000000" transform="translate(0,0)"/>
<path d="" fill="#000000" transform="translate(0,0)"/>
<path d="" fill="#FFFFFF" transform="translate(0,0)"/>
<path d="" fill="#FFFFFF" transform="translate(0,0)"/>
<path d="" fill="#FFFFFF" transform="translate(0,0)"/>
<path d="" fill="#FFFFFF" transform="translate(0,0)"/>
<path d="" fill="#FFFFFF" transform="translate(0,0)"/>
<path d="" fill="#FFFFFF" transform="translate(0,0)"/>
<path d="" fill="#FFFFFF" transform="translate(0,0)"/>
<path d="" fill="#000000" transform="translate(0,0)"/>
<path d="" fill="#000000" transform="translate(0,0)"/>
<path d="" fill="#000000" transform="translate(0,0)"/>
<path d="" fill="#000000" transform="translate(0,0)"/>
<path d="" fill="#000000" transform="translate(0,0)"/>
<path d="" fill="#FFFFFF" transform="translate(0,0)"/>
<path d="" fill="#000000" transform="translate(0,0)"/>
<path d="" fill="#000000" transform="translate(0,0)"/>
<path d="" fill="#FFFFFF" transform="translate(0,0)"/>
<path d="" fill="#FFFFFF" transform="translate(0,0)"/>
<path d="" fill="#000000" transform="translate(0,0)"/>
<path d="" fill="#000000" transform="translate(0,0)"/>
<path d="" fill="#000000" transform="translate(0,0)"/>
<path d="" fill="#000000" transform="translate(0,0)"/>
<path d="" fill="#FFFFFF" transform="translate(0,0)"/>
<path d="" fill="#FFFFFF" transform="translate(0,0)"/>
<path d="" fill="#FFFFFF" transform="translate(0,0)"/>
<path d="" fill="#000000" transform="translate(0,0)"/>
<path d="" fill="#FFFFFF" transform="translate(0,0)"/>
<path d="" fill="#FFFFFF" transform="translate(0,0)"/>
<path d="" fill="#FFFFFF" transform="translate(0,0)"/>
<path d="" fill="#FFFFFF" transform="translate(0,0)"/>
<path d="" fill="#FFFFFF" transform="translate(0,0)"/>
<path d="" fill="#FFFFFF" transform="translate(0,0)"/>
<path d="" fill="#FFFFFF" transform="translate(0,0)"/>
<path d="" fill="#FFFFFF" transform="translate(0,0)"/>
<path d="" fill="#FFFFFF" transform="translate(0,0)"/>
<path d="" fill="#FFFFFF" transform="translate(0,0)"/>
<path d="" fill="#FFFFFF" transform="translate(0,0)"/>
<path d="" fill="#FFFFFF" transform="translate(0,0)"/>
<path d="" fill="#FFFFFF" transform="translate(0,0)"/>
<path d="" fill="#FFFFFF" transform="translate(0,0)"/>
<path d="" fill="#FFFFFF" transform="translate(0,0)"/>
<path d="" fill="#FFFFFF" transform="translate(0,0)"/>
<path d="" fill="#FFFFFF" transform="translate(0,0)"/>
<path d="" fill="#FFFFFF" transform="translate(0,0)"/>
</svg>
